# xmcd
#
# Track frame offsets:
# 150
# 12512
# 24781
# 43669
# 54474
# 68484
# 83060
# 94170
# 105184
# 122236
# 136887
# 151714
# 163529
# 181784
# 200840
#
# Disc length: 2803 seconds
#
#
# Revision: 0
# Processed by: cddbd v1.5.1PL2 Copyright (c) Steve Scherf et al.
# Submitted via: FreeRIP 2.945 
#
DISCID=b10af10f
DTITLE=Debbie Mace - Country Cospel
DYEAR=1900
DGENRE=Gospel
TTITLE0=He's never Turned Back
TTITLE1=He's My Jesus (by Dot Wagoner)
TTITLE2=When I Get Up To Heaven
TTITLE3=Not My Will
TTITLE4=When he Was On The Cross
TTITLE5=Remind Me
TTITLE6=Wait a Little Longer
TTITLE7=Purple Robe
TTITLE8=Let Me Land on my Knees (by Debbie Mace)
TTITLE9=I'll Try (by Debbie Mace)
TTITLE10=Lookin' Thru the Windows of Heaven
TTITLE11=Consider the Lillies
TTITLE12=Family Bible
TTITLE13=Satan's Jewel Crown
TTITLE14=I'll Fly Away
EXTD=
EXTT0=
EXTT1=
EXTT2=
EXTT3=
EXTT4=
EXTT5=
EXTT6=
EXTT7=
EXTT8=
EXTT9=
EXTT10=
EXTT11=
EXTT12=
EXTT13=
EXTT14=
PLAYORDER=
